{
    "asset" : {
        "generator" : "Khronos glTF Blender I/O v3.4.50",
        "version" : "2.0"
    },
    "scene" : 0,
    "scenes" : [
        {
            "name" : "Scene",
            "nodes" : [
                3
            ]
        }
    ],
    "nodes" : [
        {
            "mesh" : 0,
            "name" : "defaultMaterial",
            "rotation" : [
                0,
                1,
                0,
                0
            ]
        },
        {
            "children" : [
                0
            ],
            "name" : "g"
        },
        {
            "children" : [
                1
            ],
            "name" : "Collada visual scene group",
            "rotation" : [
                0.70710688829422,
                0,
                0,
                0.7071066498756409
            ],
            "translation" : [
                -0.1239633560180664,
                0.14770105481147766,
                0.04220031574368477
            ]
        },
        {
            "children" : [
                2
            ],
            "name" : "Sketchfab_model",
            "rotation" : [
                -0.70710688829422,
                0,
                0,
                0.7071066498756409
            ]
        }
    ],
    "materials" : [
        {
            "doubleSided" : true,
            "name" : "default",
            "pbrMetallicRoughness" : {}
        }
    ],
    "meshes" : [
        {
            "name" : "defaultMaterial",
            "primitives" : [
                {
                    "attributes" : {
                        "POSITION" : 0,
                        "TEXCOORD_0" : 1,
                        "NORMAL" : 2
                    },
                    "indices" : 3,
                    "material" : 0
                }
            ]
        }
    ],
    "accessors" : [
        {
            "bufferView" : 0,
            "componentType" : 5126,
            "count" : 2551,
            "max" : [
                0.1907999962568283,
                0.6784080266952515,
                0.1921519935131073
            ],
            "min" : [
                -0.4409860074520111,
                -0.035493701696395874,
                -0.6376720070838928
            ],
            "type" : "VEC3"
        },
        {
            "bufferView" : 1,
            "componentType" : 5126,
            "count" : 2551,
            "type" : "VEC2"
        },
        {
            "bufferView" : 2,
            "componentType" : 5126,
            "count" : 2551,
            "type" : "VEC3"
        },
        {
            "bufferView" : 3,
            "componentType" : 5123,
            "count" : 5046,
            "type" : "SCALAR"
        }
    ],
    "bufferViews" : [
        {
            "buffer" : 0,
            "byteLength" : 30612,
            "byteOffset" : 0,
            "target" : 34962
        },
        {
            "buffer" : 0,
            "byteLength" : 20408,
            "byteOffset" : 30612,
            "target" : 34962
        },
        {
            "buffer" : 0,
            "byteLength" : 30612,
            "byteOffset" : 51020,
            "target" : 34962
        },
        {
            "buffer" : 0,
            "byteLength" : 10092,
            "byteOffset" : 81632,
            "target" : 34963
        }
    ],
    "buffers" : [
        {
            "byteLength" : 91724,
            "uri" : "tablero.bin"
        }
    ]
}
